<svg width="12" height="10" viewBox="0 0 12 10" fill="none" xmlns="http://www.w3.org/2000/svg">
<path d="M1.5 1.75C1.5 1.33516 1.16484 1 0.75 1C0.335156 1 0 1.33516 0 1.75V4C0 5.24219 1.00781 6.25 2.25 6.25H9.43828L7.71797 7.97031C7.425 8.26328 7.425 8.73906 7.71797 9.03203C8.01094 9.325 8.48672 9.325 8.77969 9.03203L11.7797 6.03203C12.0727 5.73906 12.0727 5.26328 11.7797 4.97031L8.77969 1.97031C8.48672 1.67734 8.01094 1.67734 7.71797 1.97031C7.425 2.26328 7.425 2.73906 7.71797 3.03203L9.43828 4.75H2.25C1.83516 4.75 1.5 4.41484 1.5 4V1.75Z" fill="#194BBB"/>
</svg>
