<svg width="10" height="10" viewBox="0 0 10 10" fill="none" xmlns="http://www.w3.org/2000/svg">
<g clip-path="url(#clip0_1124_8604)">
<path d="M4.99662 0C2.99965 0 1.375 1.62465 1.375 3.6216C1.375 6.09988 4.616 9.73815 4.75398 9.89182C4.88359 10.0362 5.10988 10.0359 5.23926 9.89182C5.37725 9.73815 8.61824 6.09988 8.61824 3.6216C8.6182 1.62465 6.99357 0 4.99662 0ZM4.99662 5.44373C3.99189 5.44373 3.17451 4.62633 3.17451 3.6216C3.17451 2.61688 3.99191 1.79949 4.99662 1.79949C6.00133 1.79949 6.81871 2.61689 6.81871 3.62162C6.81871 4.62635 6.00133 5.44373 4.99662 5.44373Z" fill="#194BBB"/>
</g>
<defs>
<clipPath id="clip0_1124_8604">
<rect width="10" height="10" fill="white"/>
</clipPath>
</defs>
</svg>
