<svg width="10" height="10" viewBox="0 0 10 10" fill="none" xmlns="http://www.w3.org/2000/svg">
<g clip-path="url(#clip0_1124_8597)">
<path d="M3.64844 7.33887V9.27137C3.64844 9.40637 3.7351 9.52595 3.86344 9.56845C3.89552 9.57887 3.92844 9.58387 3.96094 9.58387C4.05844 9.58387 4.1526 9.53803 4.2126 9.45637L5.34302 7.91803L3.64844 7.33887Z" fill="#194BBB"/>
<path d="M9.86877 0.0579536C9.77293 -0.00996308 9.6471 -0.0191297 9.54294 0.0354536L0.167935 4.93129C0.0571019 4.9892 -0.0083148 5.10754 0.000851866 5.23212C0.0104352 5.35712 0.0933519 5.46379 0.211269 5.5042L2.81752 6.39504L8.36794 1.6492L4.07294 6.82379L8.44085 8.3167C8.47335 8.32754 8.50752 8.33337 8.54169 8.33337C8.59835 8.33337 8.6546 8.31795 8.70419 8.28795C8.78335 8.23962 8.8371 8.15837 8.85085 8.06712L9.99669 0.358787C10.0138 0.24212 9.9646 0.126287 9.86877 0.0579536Z" fill="#194BBB"/>
</g>
<defs>
<clipPath id="clip0_1124_8597">
<rect width="10" height="10" fill="white"/>
</clipPath>
</defs>
</svg>
