<svg width="10" height="10" viewBox="0 0 10 10" fill="none" xmlns="http://www.w3.org/2000/svg">
<g clip-path="url(#clip0_1124_8587)">
<path d="M7.60255 6.61411C7.27585 6.29157 6.86799 6.29157 6.54337 6.61411C6.29574 6.85965 6.04812 7.1052 5.80465 7.35491C5.73806 7.42358 5.68188 7.43814 5.60072 7.39236C5.44049 7.30497 5.26986 7.23422 5.11587 7.13849C4.39796 6.68694 3.79658 6.10637 3.26386 5.45296C2.99959 5.12834 2.76445 4.78083 2.60006 4.38962C2.56676 4.31054 2.573 4.25852 2.63751 4.19401C2.88514 3.95471 3.12652 3.70916 3.36999 3.46362C3.70918 3.12235 3.70918 2.72281 3.36791 2.37946C3.17439 2.18386 2.98086 1.99241 2.78734 1.79681C2.58757 1.59704 2.38988 1.39519 2.18804 1.19751C1.86133 0.87913 1.45348 0.87913 1.12886 1.19959C0.879147 1.44514 0.639842 1.69693 0.385972 1.93831C0.15083 2.16097 0.0322179 2.43357 0.00724701 2.75195C-0.0322902 3.27009 0.0946451 3.7591 0.273603 4.23563C0.639842 5.22198 1.19753 6.09804 1.87382 6.90127C2.78734 7.9875 3.87773 8.84692 5.15333 9.46703C5.72766 9.74587 6.3228 9.9602 6.96996 9.99558C7.41527 10.0205 7.80232 9.90818 8.11237 9.56067C8.32463 9.32345 8.56393 9.10703 8.78867 8.88021C9.12161 8.54311 9.12369 8.13525 8.79283 7.8023C8.39746 7.40485 8.00001 7.00948 7.60255 6.61411Z" fill="#194BBB"/>
<path d="M7.20883 4.95612L7.97668 4.82502C7.85599 4.11959 7.52304 3.48076 7.01738 2.97301C6.48259 2.43822 5.8063 2.10112 5.06133 1.99707L4.95312 2.76909C5.52954 2.85024 6.05392 3.11035 6.46802 3.52445C6.85923 3.91567 7.11519 4.41092 7.20883 4.95612Z" fill="#194BBB"/>
<path d="M8.4013 1.61894C7.51483 0.732479 6.39322 0.172715 5.15508 0L5.04688 0.772016C6.11646 0.921841 7.08616 1.40669 7.85194 2.17038C8.57817 2.89662 9.0547 3.8143 9.22741 4.82354L9.99527 4.69244C9.79342 3.52297 9.24198 2.46171 8.4013 1.61894Z" fill="#194BBB"/>
</g>
<defs>
<clipPath id="clip0_1124_8587">
<rect width="10" height="10" fill="white"/>
</clipPath>
</defs>
</svg>
